#!OML:ASF X:\für Bonn\!DataBase\2005_08_11_Bastian_Final\c3d\Bastian.ASF
:FULLY-SPECIFIED
:DEGREES
121
root -0.0690116 15.9374 20.6207 -917.304 -36.2072 -172.379
lowerback 61.2793 3.5723 2.52566
upperback 21.2518 -5.06573 -2.00648
thorax 2.38795 -5.90671 -1.61543
lowerneck -7.69668 -12.476 -13.464
upperneck -23.8245 -15.8655 23.465
head -2.53646 -9.7839 9.30471
rclavicle 1.74931e-014 -1.10524e-013
rhumerus -1.57325 14.1705 -77.283
rradius 55.1775
rwrist -0.949338
rhand -15.6756 6.78036
rfingers 7.12502
rthumb 10.5131 -22.9367
lclavicle 1.74931e-014 -1.10524e-013
lhumerus 10.4405 -13.3746 56.9366
lradius 22.0555
lwrist 19.8857
lhand -18.6781 -6.18103
lfingers 7.12502
lthumb 7.61582 23.6618
rfemur -23.3036 -19.798 26.7898
rtibia 57.5845
rfoot -15.7826 -11.0364
rtoes 7.89202
lfemur -29.3 3.61067 -17.6763
ltibia 48.5546
lfoot -4.56384 -14.1822
ltoes -20.6312
122
root -0.0521368 15.8641 20.6312 -917.219 -36.3227 -172.166
lowerback 62.035 3.57263 2.61451
upperback 21.1773 -5.10851 -1.96088
thorax 2.31001 -5.94566 -1.57561
lowerneck -7.92728 -12.4615 -13.2864
upperneck -24.0261 -15.8381 23.5998
head -2.56443 -9.82084 9.32308
rclavicle -3.18055e-015 3.33958e-014
rhumerus -1.15854 14.2909 -76.6815
rradius 55.4632
rwrist -1.10387
rhand -15.6326 6.91995
rfingers 7.12502
rthumb 10.5546 -22.795
lclavicle -3.18055e-015 3.33958e-014
lhumerus 10.8462 -12.9649 56.551
lradius 21.898
lwrist 19.9971
lhand -18.6393 -6.05226
lfingers 7.12502
lthumb 7.65327 23.7893
rfemur -24.2595 -19.9268 27.1146
rtibia 58.6835
rfoot -16.1692 -11.1545
rtoes 7.5463
lfemur -30.2574 3.25419 -17.6399
ltibia 49.4623
lfoot -4.54282 -14.1896
ltoes -19.7142
123
root -0.0361798 15.7873 20.6414 -917.139 -36.4338 -171.955
lowerback 62.7552 3.57953 2.65754
upperback 21.1066 -5.1682 -1.92735
thorax 2.24031 -5.99492 -1.5242
lowerneck -8.11095 -12.4314 -13.1258
upperneck -24.2053 -15.7862 23.7675
head -2.59105 -9.84565 9.3587
rclavicle -4.77083e-014 -8.50798e-014
rhumerus -0.780867 14.4577 -76.1077
rradius 55.8026
rwrist -1.28857
rhand -15.5903 7.07095
rfingers 7.12502
rthumb 10.5954 -22.642
lclavicle -4.77083e-014 -8.50798e-014
lhumerus 11.1801 -12.4658 56.1492
lradius 21.7887
lwrist 20.1113
lhand -18.6137 -5.90395
lfingers 7.12502
lthumb 7.67798 23.9367
rfemur -25.2453 -20.0655 27.4396
rtibia 59.8366
rfoot -16.56 -11.2571
rtoes 7.31822
lfemur -31.238 2.90628 -17.5836
ltibia 50.4842
lfoot -4.53515 -14.1587
ltoes -18.8212
124
root -0.0210967 15.7043 20.6506 -917.094 -36.5335 -171.707
lowerback 63.4432 3.60268 2.68071
upperback 21.0297 -5.21304 -1.87299
thorax 2.17063 -6.04048 -1.44709
lowerneck -8.19463 -12.3818 -12.9786
upperneck -24.4216 -15.7114 23.9225
head -2.6487 -9.86165 9.40671
rclavicle 9.22361e-014 5.725e-014
rhumerus -0.463159 14.6428 -75.5593
rradius 56.118
rwrist -1.43131
rhand -15.6672 7.2116
rfingers 7.12502
rthumb 10.5212 -22.5051
lclavicle 9.22361e-014 5.725e-014
lhumerus 11.4508 -12.0087 55.7392
lradius 21.748
lwrist 20.3248
lhand -18.559 -5.71452
lfingers 7.12502
lthumb 7.73085 24.1242
rfemur -26.2354 -20.2034 27.7993
rtibia 61.049
rfoot -17.0109 -11.3751
rtoes 6.88068
lfemur -32.2613 2.5512 -17.4803
ltibia 51.6175
lfoot -4.56587 -14.0234
ltoes -18.1336
125
root -0.00780531 15.6155 20.6596 -917.009 -36.6263 -171.493
lowerback 64.0434 3.66244 2.63591
upperback 20.9721 -5.25192 -1.80825
thorax 2.1277 -6.08931 -1.33538
lowerneck -8.1927 -12.3094 -12.8986
upperneck -24.6877 -15.5987 24.124
head -2.72919 -9.86304 9.49527
rclavicle -7.31528e-014 -3.81667e-014
rhumerus -0.130483 14.81 -75.0175
rradius 56.4398
rwrist -1.57184
rhand -15.6837 7.26862
rfingers 7.12502
rthumb 10.5053 -22.4489
lclavicle -7.31528e-014 -3.81667e-014
lhumerus 11.6888 -11.53 55.3229
lradius 21.7164
lwrist 20.4947
lhand -18.544 -5.5926
lfingers 7.12502
lthumb 7.74527 24.2455
rfemur -27.2915 -20.3111 28.1348
rtibia 62.3258
rfoot -17.4633 -11.5171
rtoes 6.43132
lfemur -33.3528 2.16748 -17.3968
ltibia 52.8458
lfoot -4.66933 -13.7721
ltoes -17.7821
126
root 0.00476556 15.5213 20.6684 -916.929 -36.7272 -171.312
lowerback 64.6096 3.73531 2.57061
upperback 20.9476 -5.30141 -1.75258
thorax 2.12479 -6.14725 -1.22595
lowerneck -8.18801 -12.2232 -12.7707
upperneck -24.972 -15.4706 24.3176
head -2.82377 -9.86351 9.57873
rclavicle -8.90555e-014 -3.26007e-014
rhumerus 0.229859 14.941 -74.5057
rradius 56.709
rwrist -1.68864
rhand -15.7348 7.3344
rfingers 7.12502
rthumb 10.456 -22.3856
lclavicle -8.90555e-014 -3.26007e-014
lhumerus 11.9454 -10.9497 54.9149
lradius 21.6923
lwrist 20.615
lhand -18.5069 -5.44514
lfingers 7.12502
lthumb 7.78106 24.3917
rfemur -28.3543 -20.4507 28.4345
rtibia 63.6676
rfoot -17.9449 -11.6177
rtoes 6.26066
lfemur -34.4717 1.81324 -17.341
ltibia 54.162
lfoot -4.77371 -13.4658
ltoes -17.5615
127
root 0.0153179 15.4207 20.676 -916.871 -36.8164 -171.089
lowerback 65.1252 3.80377 2.50447
upperback 20.9143 -5.34363 -1.68295
thorax 2.11432 -6.20064 -1.10302
lowerneck -8.14418 -12.1451 -12.6955
upperneck -25.2082 -15.35 24.5073
head -2.90464 -9.85858 9.66701
rclavicle 0 -3.02153e-014
rhumerus 0.497277 15.0935 -74.0236
rradius 56.9835
rwrist -1.7483
rhand -15.8795 7.32826
rfingers 7.12502
rthumb 10.3164 -22.3987
lclavicle 0 -3.02153e-014
lhumerus 12.1553 -10.2651 54.5664
lradius 21.6257
lwrist 20.574
lhand -18.4845 -5.30964
lfingers 7.12502
lthumb 7.80275 24.5264
rfemur -29.4484 -20.6092 28.7761
rtibia 65.057
rfoot -18.4419 -11.7335
rtoes 5.80139
lfemur -35.6419 1.47144 -17.2316
ltibia 55.5579
lfoot -4.81617 -13.1096
ltoes -16.7032
128
root 0.0245932 15.3163 20.6833 -916.826 -36.8915 -170.885
lowerback 65.6849 3.87354 2.43693
upperback 20.8506 -5.38148 -1.62052
thorax 2.07215 -6.24977 -0.985566
lowerneck -8.17263 -12.0697 -12.5865
upperneck -25.3959 -15.2375 24.662
head -2.96604 -9.8527 9.72868
rclavicle 9.54166e-015 4.13472e-014
rhumerus 0.754668 15.2122 -73.5601
rradius 57.2311
rwrist -1.801
rhand -15.9748 7.28892
rfingers 7.12502
rthumb 10.2244 -22.4426
lclavicle 9.54166e-015 4.13472e-014
lhumerus 12.345 -9.81416 54.1309
lradius 21.6337
lwrist 20.6915
lhand -18.5179 -5.24225
lfingers 7.12502
lthumb 7.77046 24.595
rfemur -30.534 -20.7931 29.0961
rtibia 66.492
rfoot -18.9489 -11.8261
rtoes 5.29558
lfemur -36.8188 1.23028 -17.1309
ltibia 57.0114
lfoot -4.82167 -12.8673
ltoes -15.3431
129
root 0.0321298 15.2069 20.6906 -916.776 -36.958 -170.668
lowerback 66.1746 3.92404 2.39428
upperback 20.7983 -5.4181 -1.56903
thorax 2.04081 -6.29189 -0.892608
lowerneck -8.21139 -12.0141 -12.4853
upperneck -25.5402 -15.1484 24.8304
head -3.00613 -9.85462 9.788
rclavicle -5.725e-014 5.96354e-015
rhumerus 0.920856 15.2956 -73.1192
rradius 57.5011
rwrist -1.85586
rhand -16.1181 7.23176
rfingers 7.12502
rthumb 10.0862 -22.5065
lclavicle -5.725e-014 5.96354e-015
lhumerus 12.5529 -9.31643 53.7167
lradius 21.6021
lwrist 20.6826
lhand -18.5387 -5.2045
lfingers 7.12502
lthumb 7.75042 24.6335
rfemur -31.6563 -20.979 29.4308
rtibia 67.9566
rfoot -19.4719 -11.9126
rtoes 4.95911
lfemur -38.053 1.05726 -17.0141
ltibia 58.5188
lfoot -4.78744 -12.6892
ltoes -13.4826
130
root 0.0400176 15.0949 20.6981 -916.725 -37.0392 -170.476
lowerback 66.5913 3.96122 2.36018
upperback 20.7696 -5.46105 -1.53428
thorax 2.03315 -6.33265 -0.822337
lowerneck -8.20775 -11.9565 -12.377
upperneck -25.691 -15.0575 24.9859
head -3.05748 -9.85575 9.84659
rclavicle 1.65389e-013 -4.01545e-014
rhumerus 1.05603 15.3335 -72.7094
rradius 57.7433
rwrist -1.88272
rhand -16.2179 7.13722
rfingers 7.12502
rthumb 9.98998 -22.6057
lclavicle 1.65389e-013 -4.01545e-014
lhumerus 12.7854 -8.82662 53.2977
lradius 21.5417
lwrist 20.6847
lhand -18.5705 -5.23103
lfingers 7.12502
lthumb 7.71974 24.6081
rfemur -32.782 -21.12 29.7429
rtibia 69.4482
rfoot -20.0272 -12.0704
rtoes 4.41414
lfemur -39.301 0.995244 -16.9305
ltibia 60.0593
lfoot -4.75429 -12.6546
ltoes -11.5788
131
root 0.045117 14.9779 20.7048 -916.691 -37.0804 -170.297
lowerback 66.9877 4.02893 2.30501
upperback 20.7627 -5.49713 -1.4897
thorax 2.05309 -6.37843 -0.738418
lowerneck -8.30773 -11.9084 -12.257
upperneck -25.7902 -14.9859 25.1091
head -3.07918 -9.8601 9.8782
rclavicle 6.67916e-014 -1.03368e-014
rhumerus 1.22765 15.405 -72.2685
rradius 57.9611
rwrist -1.93351
rhand -16.3219 7.03063
rfingers 7.12502
rthumb 9.88959 -22.7171
lclavicle 6.67916e-014 -1.03368e-014
lhumerus 13.018 -8.23032 52.9341
lradius 21.4161
lwrist 20.5112
lhand -18.6336 -5.41747
lfingers 7.12502
lthumb 7.65879 24.4238
rfemur -33.8819 -21.1963 30.0409
rtibia 70.9651
rfoot -20.5661 -12.2349
rtoes 4.00727
lfemur -40.5343 1.0284 -16.8674
ltibia 61.6357
lfoot -4.82797 -12.6681
ltoes -10.1985
132
root 0.0493821 14.8587 20.7114 -916.631 -37.1247 -170.141
lowerback 67.3798 4.0823 2.25435
upperback 20.7216 -5.52623 -1.45983
thorax 2.03248 -6.4116 -0.670689
lowerneck -8.34497 -11.8706 -12.2018
upperneck -25.8849 -14.9156 25.2895
head -3.09573 -9.86285 9.9417
rclavicle -1.52667e-013 -1.18873e-013
rhumerus 1.33817 15.4152 -71.8863
rradius 58.1235
rwrist -1.90811
rhand -16.3667 6.96831
rfingers 7.12502
rthumb 9.84635 -22.7815
lclavicle -1.52667e-013 -1.18873e-013
lhumerus 13.1991 -7.89664 52.4782
lradius 21.385
lwrist 20.5922
lhand -18.8108 -5.55486
lfingers 7.12502
lthumb 7.48778 24.2926
rfemur -34.997 -21.2301 30.3225
rtibia 72.4831
rfoot -21.1066 -12.4272
rtoes 3.55968
lfemur -41.7973 1.11438 -16.8356
ltibia 63.2368
lfoot -4.96838 -12.6958
ltoes -9.2743
133
root 0.0520404 14.7363 20.7195 -916.604 -37.169 -169.96
lowerback 67.7579 4.11495 2.22246
upperback 20.7074 -5.58045 -1.4366
thorax 2.04249 -6.45818 -0.612547
lowerneck -8.48099 -11.8313 -12.0966
upperneck -25.929 -14.8522 25.4332
head -3.08956 -9.86571 9.97293
rclavicle 8.5875e-014 2.78299e-014
rhumerus 1.52919 15.4414 -71.4974
rradius 58.2247
rwrist -1.88865
rhand -16.3745 6.9177
rfingers 7.12502
rthumb 9.8389 -22.8324
lclavicle 8.5875e-014 2.78299e-014
lhumerus 13.4155 -7.30523 52.1117
lradius 21.2571
lwrist 20.4193
lhand -18.9878 -5.79915
lfingers 7.12502
lthumb 7.3169 24.0543
rfemur -36.1078 -21.2377 30.6026
rtibia 74.0171
rfoot -21.6892 -12.5999
rtoes 3.49675
lfemur -43.0578 1.20188 -16.7942
ltibia 64.8594
lfoot -5.17693 -12.7486
ltoes -8.43553
